<svg xmlns="http://www.w3.org/2000/svg" width="23" height="30"><path d="M2.583 9.01v3.132h-.208A2.379 2.379 0 000 14.521v13.1A2.378 2.378 0 002.375 30h18.25A2.378 2.378 0 0023 27.621V14.515a2.379 2.379 0 00-2.375-2.379h-.061V9a8.991 8.991 0 10-17.981.01zm10.325 12.64a.509.509 0 00-.233.478c.006.962.006 1.919.006 2.881a1.028 1.028 0 01-.538.969 1.121 1.121 0 01-1.677-.969V25c0-.962 0-1.925.006-2.888a.491.491 0 00-.215-.453 2.2 2.2 0 01-.722-2.7 2.235 2.235 0 014.278.883 2.131 2.131 0 01-.905 1.808zM6.518 9.01a5.056 5.056 0 1110.111 0v3.132H6.518V9.01z" fill="#fff" fill-rule="evenodd"/></svg>