<svg xmlns="http://www.w3.org/2000/svg" width="23" height="31"><path data-name="Forma 1" d="M18.61 9.143a38.571 38.571 0 00-8.814 7.576l-3.289-2.576a11.472 11.472 0 00-1.846 1.589l5.991 6.089a.22.22 0 00.17.072.264.264 0 00.047 0 .244.244 0 00.174-.149 36.61 36.61 0 018.221-11.375.243.243 0 00.058-.27 6.732 6.732 0 00-.712-.956zm3.929-5.389c-9.071 0-10.6-3.441-10.619-3.474A.457.457 0 0011.5 0a.462.462 0 00-.419.277C11.07.313 9.502 3.758.466 3.758a.452.452 0 00-.453.452v15.421c0 6.314 10.849 11.137 11.308 11.339a.481.481 0 00.365 0c.464-.2 11.31-5.025 11.31-11.339V4.206a.454.454 0 00-.457-.452zM20.5 18.731c0 4.939-8.494 8.718-8.856 8.875a.32.32 0 01-.141.03.325.325 0 01-.143-.03c-.357-.157-8.854-3.936-8.854-8.875V6.66a.355.355 0 01.355-.356c7.075 0 8.3-2.7 8.313-2.723a.358.358 0 01.327-.218H11.5a.353.353 0 01.325.224c.011.025 1.214 2.717 8.313 2.717a.354.354 0 01.354.356v12.071z" fill="#fff" fill-rule="evenodd"/></svg>